G04 EAGLE Gerber RS-274X export*
G75*
%MOMM*%
%FSLAX34Y34*%
%LPD*%
%INTop Copper*%
%IPPOS*%
%AMOC8*
5,1,8,0,0,1.08239X$1,22.5*%
G01*
%ADD10P,1.429621X8X292.500000*%
%ADD11P,1.429621X8X202.500000*%
%ADD12P,1.429621X8X22.500000*%
%ADD13P,1.429621X8X112.500000*%
%ADD14C,1.320800*%
%ADD15C,1.879600*%
%ADD16C,1.508000*%
%ADD17C,0.406400*%
%ADD18C,0.756400*%
%ADD19C,0.609600*%


D10*
X323850Y419100D03*
X323850Y393700D03*
D11*
X190500Y114300D03*
X165100Y114300D03*
D12*
X317500Y215900D03*
X342900Y215900D03*
D10*
X393700Y482600D03*
X393700Y457200D03*
X106680Y482600D03*
X106680Y457200D03*
D13*
X365760Y360680D03*
X365760Y436880D03*
X140970Y359410D03*
X140970Y435610D03*
D10*
X393700Y436880D03*
X393700Y360680D03*
X114300Y435610D03*
X114300Y359410D03*
D14*
X209296Y419100D02*
X222504Y419100D01*
X222504Y393700D02*
X209296Y393700D01*
X209296Y368300D02*
X222504Y368300D01*
X222504Y342900D02*
X209296Y342900D01*
X209296Y317500D02*
X222504Y317500D01*
X222504Y292100D02*
X209296Y292100D01*
X209296Y266700D02*
X222504Y266700D01*
X222504Y241300D02*
X209296Y241300D01*
X209296Y215900D02*
X222504Y215900D01*
X222504Y190500D02*
X209296Y190500D01*
X209296Y165100D02*
X222504Y165100D01*
X222504Y139700D02*
X209296Y139700D01*
X209296Y114300D02*
X222504Y114300D01*
X222504Y88900D02*
X209296Y88900D01*
X285496Y88900D02*
X298704Y88900D01*
X298704Y114300D02*
X285496Y114300D01*
X285496Y139700D02*
X298704Y139700D01*
X298704Y165100D02*
X285496Y165100D01*
X285496Y190500D02*
X298704Y190500D01*
X298704Y215900D02*
X285496Y215900D01*
X285496Y241300D02*
X298704Y241300D01*
X298704Y266700D02*
X285496Y266700D01*
X285496Y292100D02*
X298704Y292100D01*
X298704Y317500D02*
X285496Y317500D01*
X285496Y342900D02*
X298704Y342900D01*
X298704Y368300D02*
X285496Y368300D01*
X285496Y393700D02*
X298704Y393700D01*
X298704Y419100D02*
X285496Y419100D01*
D15*
X424180Y111760D03*
X424180Y86360D03*
X469900Y368300D03*
X469900Y342900D03*
X469900Y317500D03*
X469900Y292100D03*
X469900Y266700D03*
X469900Y241300D03*
X469900Y215900D03*
X469900Y190500D03*
X469900Y165100D03*
X469900Y139700D03*
X25400Y241300D03*
X25400Y215900D03*
X25400Y190500D03*
X25400Y165100D03*
X25400Y139700D03*
X25400Y368300D03*
X25400Y342900D03*
X25400Y317500D03*
X25400Y292100D03*
X25400Y266700D03*
X25400Y76200D03*
X25400Y50800D03*
X25400Y25400D03*
X158750Y25400D03*
X158750Y50800D03*
D16*
X209950Y50790D03*
X234950Y50790D03*
X259950Y50790D03*
X259950Y17790D03*
X234950Y17790D03*
X209950Y17790D03*
D15*
X125730Y25400D03*
X125730Y50800D03*
X125730Y76200D03*
X125730Y101600D03*
X424180Y21590D03*
X398780Y21590D03*
X373380Y21590D03*
X347980Y21590D03*
X322580Y21590D03*
X297180Y21590D03*
X203200Y469900D03*
X228600Y469900D03*
X254000Y469900D03*
X279400Y469900D03*
X304800Y469900D03*
X453390Y99060D03*
X453390Y73660D03*
X453390Y48260D03*
X453390Y22860D03*
X429260Y471170D03*
X480060Y471170D03*
X71120Y471170D03*
X20320Y471170D03*
D17*
X292100Y419100D02*
X323850Y419100D01*
X355600Y419100D01*
X393700Y381000D01*
X393700Y360680D01*
X444500Y165100D02*
X469900Y165100D01*
X444500Y165100D02*
X431800Y152400D01*
X431800Y139700D01*
X444500Y127000D01*
X457200Y127000D01*
X469900Y114300D01*
X469900Y64770D01*
X453390Y48260D01*
X215900Y114300D02*
X190500Y114300D01*
X63500Y50800D02*
X25400Y50800D01*
X63500Y50800D02*
X88900Y25400D01*
X125730Y25400D01*
D18*
X63500Y50800D03*
X63500Y190500D03*
D17*
X25400Y190500D01*
D18*
X157480Y402590D03*
D17*
X228600Y461010D02*
X228600Y469900D01*
X228600Y461010D02*
X170180Y402590D01*
X157480Y402590D01*
D19*
X344180Y50790D02*
X373380Y21590D01*
X344180Y50790D02*
X259950Y50790D01*
D17*
X292100Y215900D02*
X317500Y215900D01*
X429260Y454660D02*
X429260Y471170D01*
X411480Y436880D02*
X393700Y436880D01*
X411480Y436880D02*
X429260Y454660D01*
X254000Y419100D02*
X215900Y419100D01*
X254000Y419100D02*
X266700Y431800D01*
X330200Y431800D02*
X355600Y457200D01*
X373380Y457200D02*
X393700Y436880D01*
X330200Y431800D02*
X266700Y431800D01*
X355600Y457200D02*
X373380Y457200D01*
D18*
X172466Y417322D03*
D17*
X172466Y424942D01*
X114808Y482600D01*
X106680Y482600D01*
D15*
X152146Y470408D03*
D17*
X152146Y457708D01*
X172466Y437388D01*
X172466Y417322D01*
X71120Y449580D02*
X71120Y471170D01*
X85090Y435610D02*
X114300Y435610D01*
X76200Y444500D02*
X71120Y449580D01*
X76200Y444500D02*
X85090Y435610D01*
X177800Y165100D02*
X215900Y165100D01*
X177800Y165100D02*
X127000Y215900D01*
X127000Y292100D01*
X152400Y317500D01*
X152400Y330200D01*
X139700Y342900D01*
X76200Y342900D01*
D18*
X76200Y342900D03*
X76200Y444500D03*
D17*
X140970Y443230D02*
X140970Y435610D01*
X127000Y457200D02*
X106680Y457200D01*
X127000Y457200D02*
X140970Y443230D01*
X292100Y139700D02*
X368300Y139700D01*
D18*
X368300Y139700D03*
X368300Y86360D03*
D17*
X424180Y86360D01*
X440690Y86360D02*
X453390Y73660D01*
X440690Y86360D02*
X424180Y86360D01*
X355600Y165100D02*
X292100Y165100D01*
D18*
X355600Y165100D03*
X355600Y111760D03*
D17*
X424180Y111760D01*
X440690Y111760D02*
X453390Y99060D01*
X440690Y111760D02*
X424180Y111760D01*
X266700Y266700D02*
X215900Y266700D01*
D18*
X266700Y266700D03*
D17*
X241300Y215900D02*
X215900Y215900D01*
D18*
X241300Y215900D03*
D17*
X331470Y38100D02*
X347980Y21590D01*
X331470Y38100D02*
X292100Y38100D01*
D18*
X292100Y38100D03*
D17*
X25400Y368300D02*
X50800Y393700D01*
X215900Y393700D01*
X50800Y342900D02*
X25400Y342900D01*
X50800Y342900D02*
X88900Y381000D01*
X177800Y381000D02*
X190500Y368300D01*
X215900Y368300D01*
X177800Y381000D02*
X88900Y381000D01*
X139700Y317500D02*
X25400Y317500D01*
X139700Y292100D02*
X215900Y292100D01*
D18*
X139700Y292100D03*
X139700Y317500D03*
D17*
X114300Y292100D02*
X25400Y292100D01*
X165100Y190500D02*
X215900Y190500D01*
D18*
X165100Y190500D03*
X114300Y292100D03*
D17*
X152400Y88900D02*
X215900Y88900D01*
D18*
X152400Y88900D03*
X114300Y266700D03*
D17*
X25400Y266700D01*
X228600Y152400D02*
X292100Y88900D01*
X177800Y152400D02*
X152400Y177800D01*
X114300Y177800D01*
X50800Y241300D01*
X25400Y241300D01*
X177800Y152400D02*
X228600Y152400D01*
X292100Y114300D02*
X317500Y114300D01*
X330200Y127000D01*
X393700Y127000D01*
X406400Y139700D01*
X406400Y215900D02*
X469900Y215900D01*
D18*
X406400Y215900D03*
X406400Y139700D03*
D17*
X469900Y241300D02*
X292100Y241300D01*
X292100Y266700D02*
X469900Y266700D01*
X469900Y292100D02*
X292100Y292100D01*
X292100Y317500D02*
X469900Y317500D01*
X330200Y342900D02*
X292100Y342900D01*
X330200Y342900D02*
X342900Y330200D01*
X419100Y330200D01*
X431800Y342900D01*
X469900Y342900D01*
X330200Y368300D02*
X292100Y368300D01*
X330200Y368300D02*
X355600Y342900D01*
X406400Y342900D01*
X431800Y368300D01*
X469900Y368300D01*
D19*
X222240Y63500D02*
X234950Y50790D01*
X190500Y63500D02*
X177800Y76200D01*
X125730Y76200D01*
X190500Y63500D02*
X222240Y63500D01*
X234950Y50790D02*
X247660Y63500D01*
X330200Y63500D01*
D18*
X330200Y63500D03*
X330200Y190500D03*
D19*
X469900Y190500D01*
X125730Y76200D02*
X25400Y76200D01*
D17*
X25400Y215900D02*
X50800Y215900D01*
D18*
X50800Y215900D03*
M02*
