M48
;GenerationSoftware,Autodesk,EAGLE,9.6.2*%
;CreationDate,2022-04-18T06:10:26Z*%
FMAT,2
ICI,OFF
METRIC,TZ,000.000
T4C0.350
T3C0.813
T2C1.000
T1C1.016
%
G90
M71
T1
X2032Y47117
X7112Y47117
X48006Y47117
X42926Y47117
X15215Y47041
X45339Y2286
X45339Y4826
X45339Y7366
X45339Y9906
X30480Y46990
X27940Y46990
X25400Y46990
X22860Y46990
X20320Y46990
X29718Y2159
X32258Y2159
X34798Y2159
X37338Y2159
X39878Y2159
X42418Y2159
X12573Y10160
X12573Y7620
X12573Y5080
X12573Y2540
X42418Y8636
X46990Y36830
X46990Y34290
X46990Y31750
X42418Y11176
X46990Y29210
X15875Y5080
X15875Y2540
X2540Y2540
X2540Y5080
X2540Y7620
X2540Y26670
X2540Y29210
X2540Y31750
X2540Y34290
X2540Y36830
X2540Y13970
X2540Y16510
X2540Y19050
X2540Y21590
X2540Y24130
X46990Y13970
X46990Y16510
X46990Y19050
X46990Y21590
X46990Y24130
X46990Y26670
T2
X20995Y5079
X25995Y5079
X25995Y1779
X23495Y1779
X20995Y1779
X23495Y5079
T3
X29210Y8890
X29210Y11430
X29210Y13970
X29210Y16510
X29210Y19050
X29210Y21590
X29210Y24130
X29210Y26670
X29210Y29210
X29210Y31750
X29210Y34290
X29210Y36830
X29210Y39370
X29210Y41910
X21590Y8890
X21590Y11430
X21590Y13970
X21590Y16510
X21590Y19050
X21590Y21590
X21590Y24130
X21590Y26670
X21590Y29210
X21590Y31750
X21590Y34290
X21590Y36830
X21590Y39370
X21590Y41910
X11430Y35941
X11430Y43561
X39370Y36068
X39370Y43688
X14097Y43561
X14097Y35941
X36576Y43688
X36576Y36068
X10668Y45720
X10668Y48260
X39370Y45720
X39370Y48260
X34290Y21590
X31750Y21590
X16510Y11430
X19050Y11430
X32385Y39370
X32385Y41910
T4
X5080Y21590
X33020Y19050
X33020Y6350
X40640Y13970
X40640Y21590
X11430Y26670
X15240Y8890
X11430Y29210
X16510Y19050
X13970Y31750
X13970Y29210
X29210Y3810
X24130Y21590
X26670Y26670
X35560Y11176
X35560Y16510
X36830Y8636
X36830Y13970
X7620Y44450
X7620Y34290
X17247Y41732
X15748Y40259
X6350Y19050
X6350Y5080
M30