G04 EAGLE Gerber RS-274X export*
G75*
%MOMM*%
%FSLAX34Y34*%
%LPD*%
%INSoldermask Top*%
%IPPOS*%
%AMOC8*
5,1,8,0,0,1.08239X$1,22.5*%
G01*
%ADD10P,1.649562X8X292.500000*%
%ADD11P,1.649562X8X202.500000*%
%ADD12P,1.649562X8X22.500000*%
%ADD13P,1.649562X8X112.500000*%
%ADD14C,1.524000*%
%ADD15C,2.082800*%
%ADD16C,1.711200*%
%ADD17C,0.959600*%


D10*
X323850Y419100D03*
X323850Y393700D03*
D11*
X190500Y114300D03*
X165100Y114300D03*
D12*
X317500Y215900D03*
X342900Y215900D03*
D10*
X393700Y482600D03*
X393700Y457200D03*
X106680Y482600D03*
X106680Y457200D03*
D13*
X365760Y360680D03*
X365760Y436880D03*
X140970Y359410D03*
X140970Y435610D03*
D10*
X393700Y436880D03*
X393700Y360680D03*
X114300Y435610D03*
X114300Y359410D03*
D14*
X209296Y419100D02*
X222504Y419100D01*
X222504Y393700D02*
X209296Y393700D01*
X209296Y368300D02*
X222504Y368300D01*
X222504Y342900D02*
X209296Y342900D01*
X209296Y317500D02*
X222504Y317500D01*
X222504Y292100D02*
X209296Y292100D01*
X209296Y266700D02*
X222504Y266700D01*
X222504Y241300D02*
X209296Y241300D01*
X209296Y215900D02*
X222504Y215900D01*
X222504Y190500D02*
X209296Y190500D01*
X209296Y165100D02*
X222504Y165100D01*
X222504Y139700D02*
X209296Y139700D01*
X209296Y114300D02*
X222504Y114300D01*
X222504Y88900D02*
X209296Y88900D01*
X285496Y88900D02*
X298704Y88900D01*
X298704Y114300D02*
X285496Y114300D01*
X285496Y139700D02*
X298704Y139700D01*
X298704Y165100D02*
X285496Y165100D01*
X285496Y190500D02*
X298704Y190500D01*
X298704Y215900D02*
X285496Y215900D01*
X285496Y241300D02*
X298704Y241300D01*
X298704Y266700D02*
X285496Y266700D01*
X285496Y292100D02*
X298704Y292100D01*
X298704Y317500D02*
X285496Y317500D01*
X285496Y342900D02*
X298704Y342900D01*
X298704Y368300D02*
X285496Y368300D01*
X285496Y393700D02*
X298704Y393700D01*
X298704Y419100D02*
X285496Y419100D01*
D15*
X424180Y111760D03*
X424180Y86360D03*
X469900Y368300D03*
X469900Y342900D03*
X469900Y317500D03*
X469900Y292100D03*
X469900Y266700D03*
X469900Y241300D03*
X469900Y215900D03*
X469900Y190500D03*
X469900Y165100D03*
X469900Y139700D03*
X25400Y241300D03*
X25400Y215900D03*
X25400Y190500D03*
X25400Y165100D03*
X25400Y139700D03*
X25400Y368300D03*
X25400Y342900D03*
X25400Y317500D03*
X25400Y292100D03*
X25400Y266700D03*
X25400Y76200D03*
X25400Y50800D03*
X25400Y25400D03*
X158750Y25400D03*
X158750Y50800D03*
D16*
X209950Y50790D03*
X234950Y50790D03*
X259950Y50790D03*
X259950Y17790D03*
X234950Y17790D03*
X209950Y17790D03*
D15*
X125730Y25400D03*
X125730Y50800D03*
X125730Y76200D03*
X125730Y101600D03*
X424180Y21590D03*
X398780Y21590D03*
X373380Y21590D03*
X347980Y21590D03*
X322580Y21590D03*
X297180Y21590D03*
X203200Y469900D03*
X228600Y469900D03*
X254000Y469900D03*
X279400Y469900D03*
X304800Y469900D03*
X453390Y99060D03*
X453390Y73660D03*
X453390Y48260D03*
X453390Y22860D03*
X429260Y471170D03*
X480060Y471170D03*
X71120Y471170D03*
X20320Y471170D03*
D17*
X63500Y50800D03*
X63500Y190500D03*
X157480Y402590D03*
X172466Y417322D03*
D15*
X152146Y470408D03*
D17*
X76200Y342900D03*
X76200Y444500D03*
X368300Y139700D03*
X368300Y86360D03*
X355600Y165100D03*
X355600Y111760D03*
X266700Y266700D03*
X241300Y215900D03*
X292100Y38100D03*
X139700Y292100D03*
X139700Y317500D03*
X165100Y190500D03*
X114300Y292100D03*
X152400Y88900D03*
X114300Y266700D03*
X406400Y215900D03*
X406400Y139700D03*
X330200Y63500D03*
X330200Y190500D03*
X50800Y215900D03*
M02*
